<?xml version="1.0" standalone="no"?>
<!DOCTYPE svg PUBLIC "-//W3C//DTD SVG 20010904//EN"
 "http://www.w3.org/TR/2001/REC-SVG-20010904/DTD/svg10.dtd">
<svg version="1.0" xmlns="http://www.w3.org/2000/svg"
 width="1024.000000pt" height="1024.000000pt" viewBox="0 0 1024.000000 1024.000000"
 preserveAspectRatio="xMidYMid meet">
<metadata>
Created by potrace 1.14, written by Peter Selinger 2001-2017
</metadata>
<g transform="translate(0.000000,1024.000000) scale(0.100000,-0.100000)"
fill="#000000" stroke="none">
<path d="M1422 8863 c-38 -7 -99 -73 -111 -120 -9 -31 -11 -293 -9 -945 3
-884 3 -904 23 -937 11 -20 40 -45 65 -58 79 -41 178 -15 215 57 12 23 15 75
15 255 l0 225 695 0 695 0 0 -134 c0 -113 -2 -135 -16 -140 -9 -3 -140 -6
-293 -6 l-277 0 -51 49 c-41 40 -63 52 -108 62 -176 39 -353 -92 -401 -297
-15 -65 -14 -106 2 -201 l6 -33 -223 0 c-213 0 -226 -1 -263 -23 -22 -12 -49
-38 -60 -57 l-21 -35 0 -2615 c0 -1438 3 -2627 7 -2642 11 -38 57 -88 95 -104
27 -12 640 -14 3798 -14 l3765 0 46 42 c81 75 74 -67 74 1528 0 1562 3 1475
-58 1519 -38 27 -134 29 -186 4 -53 -25 -67 -70 -65 -209 0 -64 -1 -117 -4
-120 -2 -3 -16 0 -31 6 -40 15 -93 12 -121 -6 -24 -16 -27 -15 -60 10 -50 38
-97 56 -150 56 -49 0 -53 4 -28 32 21 23 29 115 14 161 -18 54 -70 87 -149 98
-37 4 -273 8 -524 9 l-458 0 0 883 c-1 939 2 895 -50 930 -23 16 -116 17
-1323 17 l-1298 0 3 -162 3 -163 1183 -3 1182 -2 0 -905 0 -905 593 -2 592 -3
3 -225 c2 -156 7 -228 15 -239 7 -8 32 -23 56 -34 83 -37 219 -17 285 41 47
42 104 132 110 176 7 42 10 46 36 46 15 0 54 14 85 30 l58 30 -7 -74 c-10
-110 -29 -163 -88 -241 -119 -155 -295 -222 -481 -181 -76 17 -168 64 -220
114 -48 45 -107 143 -128 215 l-21 67 -1059 0 -1059 0 0 -563 c0 -425 -3 -566
-12 -575 -9 -9 -249 -12 -1017 -12 -959 0 -1008 -1 -1047 -19 -23 -10 -52 -34
-65 -52 -23 -33 -24 -42 -27 -227 l-4 -192 -445 2 -446 3 1 113 c1 63 4 118 8
123 3 5 47 9 97 9 81 0 102 -4 167 -31 65 -28 82 -31 144 -27 176 12 306 148
306 318 0 66 -10 99 -46 151 -14 21 -22 43 -18 52 6 16 90 17 1073 18 798 0
1075 3 1101 12 l35 12 3 583 2 582 590 0 590 0 -2 765 -3 766 -1182 -1 -1183
0 0 410 0 410 1487 -2 1488 -3 -4 -910 c-3 -1007 -6 -958 60 -1006 l34 -24
762 -3 c747 -3 762 -3 801 17 50 25 90 72 97 114 3 18 4 985 3 2149 l-3 2117
-21 28 c-11 15 -40 38 -65 51 -43 22 -49 23 -319 20 -272 -3 -275 -3 -309 -27
-63 -45 -62 -37 -61 -635 1 -297 1 -557 1 -577 -1 -33 -5 -37 -58 -62 -31 -15
-59 -24 -62 -21 -3 3 -6 279 -7 613 -1 434 -5 614 -13 629 -6 12 -28 34 -48
49 l-36 28 -803 0 -802 0 -27 -25 c-53 -49 -55 -62 -55 -302 -1 -198 -2 -220
-15 -191 -38 88 -117 184 -205 250 -119 89 -228 124 -379 124 -110 0 -168 -12
-260 -52 -35 -16 -65 -29 -67 -29 -2 0 -4 25 -4 56 0 71 -22 117 -69 146 l-36
23 -1960 1 c-1078 1 -1970 -1 -1983 -3z m3751 -435 c4 -83 2 -137 -4 -143 -7
-7 -578 -11 -1664 -13 l-1655 -2 0 -165 0 -165 860 0 860 0 0 -1085 0 -1086
-126 3 -126 3 -1 940 -2 940 -850 2 -850 2 -3 438 c-1 241 0 444 3 451 3 9
368 12 1778 12 l1774 0 6 -132z m2715 -505 l2 -633 135 0 135 0 0 -155 0 -155
-135 0 -135 0 0 -1025 0 -1025 450 0 450 0 0 -115 0 -115 -572 -2 c-315 -2
-576 -2 -581 0 -4 2 -7 515 -7 1140 l1 1137 -141 3 -140 3 0 154 0 155 140 0
140 0 0 408 c0 224 3 444 7 490 l6 82 -372 0 -371 0 2 -197 3 -198 149 -3
c146 -2 150 -2 175 22 31 28 64 46 85 46 14 0 16 -26 16 -206 l0 -205 -47 8
c-27 4 -81 8 -121 8 -72 0 -74 -1 -107 -36 -31 -34 -33 -42 -40 -130 -4 -52
-5 -184 -3 -294 4 -279 10 -287 201 -293 l117 -4 0 -75 0 -74 -347 3 c-381 3
-389 4 -428 64 -18 27 -18 28 6 43 13 8 50 41 81 72 48 48 60 68 79 130 20 64
21 80 11 141 -20 135 -98 240 -221 301 -61 30 -73 32 -166 32 -91 0 -106 -3
-165 -31 -80 -38 -120 -71 -156 -129 -16 -24 -39 -47 -52 -50 -36 -9 -80 -60
-93 -107 -26 -98 7 -195 77 -224 l34 -14 0 -115 0 -115 -910 0 c-987 0 -948 2
-1000 -55 l-25 -27 -3 -389 -3 -389 -89 0 -90 0 0 565 c0 311 3 565 6 565 3 0
23 -14 44 -30 48 -38 170 -95 247 -115 66 -18 232 -21 308 -6 268 52 481 246
551 502 37 132 14 331 -53 462 -32 65 -102 157 -147 194 l-34 28 181 3 182 2
52 -107 c120 -252 327 -387 593 -386 238 0 449 133 569 357 17 33 31 53 32 45
4 -70 31 -133 71 -162 35 -26 105 -33 149 -14 68 28 69 36 69 474 0 214 3 393
7 396 3 4 272 6 597 5 l591 -3 3 -632z m900 -1010 l-3 -1648 -55 -3 c-30 -2
-70 -1 -87 3 l-33 6 0 1644 0 1645 90 0 90 0 -2 -1647z m-2831 1517 c153 -71
244 -245 213 -404 -17 -88 -47 -144 -110 -207 -76 -77 -144 -103 -265 -102
-111 0 -183 25 -253 88 -110 99 -160 291 -110 425 16 44 78 129 111 154 114
87 286 106 414 46z m-1896 -501 c5 -8 9 -41 9 -73 0 -57 -2 -61 -48 -110 -67
-70 -95 -146 -96 -252 0 -100 28 -164 107 -247 156 -162 390 -164 521 -4 101
123 106 290 12 417 -31 43 -61 67 -153 124 -53 32 -74 86 -52 132 l14 29 100
0 99 0 3 -34 c2 -26 18 -50 72 -106 114 -121 154 -213 154 -360 1 -391 -441
-615 -778 -395 -33 21 -83 63 -111 92 l-52 53 5 379 6 378 89 -4 c63 -3 92 -8
99 -19z m305 -290 c63 -23 118 -111 117 -186 0 -65 -25 -109 -83 -147 -93 -63
-201 -40 -265 54 -60 89 -31 211 64 264 50 28 118 34 167 15z m2061 -470 c123
-77 68 -269 -78 -269 -63 0 -109 28 -138 83 -21 42 -22 50 -11 95 25 106 133
149 227 91z m-4085 -205 c34 -18 78 -91 78 -130 0 -16 -9 -49 -20 -73 -19 -40
-20 -66 -20 -341 l0 -297 -46 -7 c-26 -3 -145 -6 -265 -6 l-219 0 0 -2195 0
-2195 2278 2 2277 3 0 405 0 405 -80 3 c-71 2 -85 0 -115 -20 -62 -43 -69 -61
-71 -189 -2 -94 1 -120 14 -140 23 -32 22 -94 -2 -118 -12 -12 -40 -22 -73
-26 -29 -3 -539 -5 -1133 -3 l-1080 3 0 85 0 85 1063 5 1064 5 19 24 c18 22
19 47 19 577 l0 554 843 0 842 0 40 -44 c105 -115 262 -205 413 -236 123 -25
162 -25 279 -1 108 23 180 53 269 116 36 25 67 45 70 45 2 0 3 -75 2 -167 l-3
-168 -406 -3 -405 -2 -32 47 c-144 222 -439 257 -621 75 -93 -93 -121 -177
-121 -369 l0 -133 -287 -2 -288 -3 -3 -157 -3 -157 408 -3 c353 -3 410 -1 421
12 11 12 13 72 10 308 -4 267 -3 295 13 322 40 65 112 85 184 50 79 -38 105
-121 65 -209 -54 -119 8 -248 137 -284 33 -9 69 -17 81 -17 17 0 22 -6 22 -27
0 -40 31 -96 60 -110 14 -7 63 -13 116 -13 86 0 92 -1 116 -28 56 -61 59 -125
8 -156 -26 -15 -67 -17 -372 -18 -189 0 -551 -3 -806 -5 l-463 -4 3 -157 3
-157 990 0 990 0 0 405 0 405 -315 5 c-173 3 -316 7 -317 8 -51 52 -59 103
-20 146 l22 26 392 1 c304 1 396 -1 408 -11 13 -11 15 -89 15 -631 l0 -619
-3590 0 -3590 0 2 2433 3 2432 266 -3 266 -3 7 198 c6 167 4 204 -9 235 -62
150 61 282 197 212z m668 -1078 l0 -975 -55 -6 c-68 -9 -261 -2 -272 9 -9 9
-17 1888 -8 1924 5 22 8 22 170 22 l165 0 0 -974z m5303 711 c3 -100 5 -438 4
-752 l-2 -570 -63 0 -64 0 -1 752 -2 752 35 3 c19 2 47 1 61 0 l27 -4 5 -181z
m-5933 -1417 l0 -600 470 0 470 0 0 145 0 145 245 0 245 0 0 -123 c0 -95 4
-128 16 -145 l15 -22 365 0 364 0 0 -210 0 -210 -95 0 -95 0 0 75 0 75 -1000
0 -1000 0 -2 -307 -3 -308 -110 0 -110 0 0 113 c0 61 1 531 3 1042 l2 930 110
0 110 0 0 -600z m1221 280 l218 0 3 -135 c2 -75 2 -140 0 -145 -2 -6 -100 -10
-258 -10 l-254 0 0 143 c0 79 3 147 7 151 5 4 21 5 37 2 16 -3 127 -6 247 -6z
m2819 -724 c0 -281 -4 -447 -10 -451 -5 -3 -66 -3 -135 1 l-124 7 37 46 c106
128 122 336 38 470 -57 89 -166 161 -275 181 -94 17 -220 -10 -294 -62 l-32
-23 -755 0 -755 0 -3 138 -3 137 1156 0 1155 0 0 -444z m-445 0 c45 -35 65
-74 65 -128 0 -56 -29 -102 -79 -128 -81 -41 -177 -13 -212 63 -36 81 -15 159
57 204 52 32 118 28 169 -11z m-490 -238 c4 -57 5 -128 3 -158 l-3 -55 -307
-3 -308 -2 0 153 c0 85 3 157 7 160 3 4 140 7 304 7 l297 0 7 -102z m-930
-528 l700 -5 3 -432 2 -433 -1120 0 -1119 0 -3 -87 -3 -88 -167 -3 -167 -2 -3
87 -3 88 -145 0 -145 0 -3 -527 -2 -528 -110 0 -110 0 0 665 0 665 258 2 257
3 0 300 0 300 575 5 c316 3 582 3 590 0 8 -3 330 -7 715 -10z m-1427 -1300
c37 -23 72 -75 72 -108 0 -63 -54 -120 -121 -129 -83 -12 -149 46 -149 131 0
98 112 158 198 106z"/>
<path d="M3120 3691 c-93 -19 -110 -50 -110 -206 l0 -115 1029 0 1029 0 4 153
c3 83 2 155 -1 158 -8 9 -1908 18 -1951 10z"/>
</g>
</svg>
